<svg width="64" height="68" viewBox="0 0 64 68" fill="none" xmlns="http://www.w3.org/2000/svg">
<rect y="4" width="64" height="64" rx="14" fill="#00FF88"/>
<path d="M9.744 52V15.756H14.164V31.824L13.072 32.24C13.5573 30.9227 14.2333 29.796 15.1 28.86C15.9667 27.924 16.9893 27.2133 18.168 26.728C19.3467 26.208 20.6293 25.948 22.016 25.948C24.824 25.948 27.0253 26.78 28.62 28.444C30.2147 30.0733 31.012 32.5 31.012 35.724V52H26.592V37.336C26.592 34.736 26.1067 32.8293 25.136 31.616C24.2 30.368 22.7613 29.744 20.82 29.744C18.7053 29.744 17.0587 30.5067 15.88 32.032C14.736 33.5227 14.164 35.9147 14.164 39.208V52H9.744Z" fill="#1A1A1A"/>
<rect x="36" y="49" width="22" height="3" rx="0.1" fill="#1A1A1A"/>
<rect x="38.7207" y="31" width="21" height="3" rx="0.1" transform="rotate(35 38.7207 31)" fill="#1A1A1A"/>
<rect x="37.0238" y="31.0451" width="21" height="3" rx="0.1" transform="rotate(-35 37.0238 31.0451)" fill="#1A1A1A"/>
<rect x="37" y="31" width="2.5" height="2.5" rx="0.1" fill="#1A1A1A"/>
</svg>
